{"asset": {"version": "2.0", "generator": "maya-glTFExport"}, "scene": 0, "scenes": [{"name": "defaultScene", "nodes": [0, 1]}], "nodes": [{"translation": [-7.62939453125e-06, 0.0, 0.0], "rotation": [-0.7071067811865476, 0.0, 0.0, 0.7071067811865476], "scale": [1.0, 1.0, 1.0], "mesh": 0}, {"translation": [-0.0842983519824891, 102.66241614200285, 0.0], "rotation": [0.0, 0.0, 0.0, 1.0], "scale": [1.0, 1.0, 1.0]}], "meshes": [{"primitives": [{"mode": 4, "attributes": {"POSITION": 1, "NORMAL": 2, "TEXCOORD_0": 3}, "indices": 0, "material": 0}]}], "materials": [{"pbrMetallicRoughness": {"baseColorFactor": [0.5, 0.5, 0.5, 1.0], "metallicFactor": 0, "roughnessFactor": 1}, "alphaMode": "OPAQUE"}], "buffers": [{"byteLength": 1559524, "uri": "data:application/octet-stream;base64,"}], "bufferViews": [{"buffer": 0, "byteOffset": 0, "byteLength": 176388, "target": 34963}, {"buffer": 0, "byteOffset": 176388, "byteLength": 518676, "target": 34962}, {"buffer": 0, "byteOffset": 695064, "byteLength": 518676, "target": 34962}, {"buffer": 0, "byteOffset": 1213740, "byteLength": 345784, "target": 34962}], "accessors": [{"bufferView": 0, "byteOffset": 0, "componentType": 5123, "count": 88194, "type": "SCALAR", "max": [43222], "min": [0]}, {"bufferView": 1, "byteOffset": 0, "componentType": 5126, "count": 43223, "type": "VEC3", "max": [21.034839630126953, 11.017927169799805, 199.0196533203125], "min": [-21.034839630126953, -21.212282180786133, -0.11133575439453125]}, {"bufferView": 2, "byteOffset": 0, "componentType": 5126, "count": 43223, "type": "VEC3"}, {"bufferView": 3, "byteOffset": 0, "componentType": 5126, "count": 43223, "type": "VEC2"}]}