{"asset": {"version": "2.0", "generator": "maya-glTFExport"}, "scene": 0, "scenes": [{"name": "defaultScene", "nodes": [0]}], "nodes": [{"translation": [-7.62939453125e-06, 0.0, 0.0], "rotation": [-0.7071067811865476, 0.0, 0.0, 0.7071067811865476], "scale": [1.0, 1.0, 1.0], "mesh": 0}], "meshes": [{"primitives": [{"mode": 4, "attributes": {"POSITION": 7, "NORMAL": 8, "TEXCOORD_0": 9}, "indices": 6, "material": 0}]}], "materials": [{"pbrMetallicRoughness": {"baseColorFactor": [0.5, 0.5, 0.5, 1.0], "metallicFactor": 0, "roughnessFactor": 1}, "alphaMode": "OPAQUE"}], "animations": [{"channels": [{"target": {"node": 0, "path": "translation"}, "sampler": 0}, {"target": {"node": 0, "path": "rotation"}, "sampler": 1}, {"target": {"node": 0, "path": "scale"}, "sampler": 2}], "samplers": [{"input": 0, "output": 1, "interpolation": "LINEAR"}, {"input": 2, "output": 3, "interpolation": "LINEAR"}, {"input": 4, "output": 5, "interpolation": "LINEAR"}]}], "buffers": [{"byteLength": 1559956, "uri": "data:application/octet-stream;base64,"}], "bufferViews": [{"buffer": 0, "byteOffset": 0, "byteLength": 16}, {"buffer": 0, "byteOffset": 16, "byteLength": 48}, {"buffer": 0, "byteOffset": 64, "byteLength": 16}, {"buffer": 0, "byteOffset": 80, "byteLength": 64}, {"buffer": 0, "byteOffset": 144, "byteLength": 16}, {"buffer": 0, "byteOffset": 160, "byteLength": 48}, {"buffer": 0, "byteOffset": 208, "byteLength": 176388, "target": 34963}, {"buffer": 0, "byteOffset": 176596, "byteLength": 518760, "target": 34962}, {"buffer": 0, "byteOffset": 695356, "byteLength": 518760, "target": 34962}, {"buffer": 0, "byteOffset": 1214116, "byteLength": 345840, "target": 34962}], "accessors": [{"bufferView": 0, "byteOffset": 0, "componentType": 5126, "count": 4, "type": "SCALAR", "max": [3.3333333333333335], "min": [0.0]}, {"bufferView": 1, "byteOffset": 0, "componentType": 5126, "count": 4, "type": "VEC3"}, {"bufferView": 2, "byteOffset": 0, "componentType": 5126, "count": 4, "type": "SCALAR", "max": [3.3333333333333335], "min": [0.0]}, {"bufferView": 3, "byteOffset": 0, "componentType": 5126, "count": 4, "type": "VEC4"}, {"bufferView": 4, "byteOffset": 0, "componentType": 5126, "count": 4, "type": "SCALAR", "max": [3.3333333333333335], "min": [0.0]}, {"bufferView": 5, "byteOffset": 0, "componentType": 5126, "count": 4, "type": "VEC3"}, {"bufferView": 6, "byteOffset": 0, "componentType": 5123, "count": 88194, "type": "SCALAR", "max": [43229], "min": [0]}, {"bufferView": 7, "byteOffset": 0, "componentType": 5126, "count": 43230, "type": "VEC3", "max": [21.034839630126953, 11.017927169799805, 199.0196533203125], "min": [-21.034839630126953, -21.212282180786133, -0.11133575439453125]}, {"bufferView": 8, "byteOffset": 0, "componentType": 5126, "count": 43230, "type": "VEC3"}, {"bufferView": 9, "byteOffset": 0, "componentType": 5126, "count": 43230, "type": "VEC2"}]}